<svg width="40" height="38" viewBox="0 0 40 38" fill="none" xmlns="http://www.w3.org/2000/svg">
<path d="M39.525 23L33.275 10.5H35C35.3315 10.5 35.6495 10.3683 35.8839 10.1339C36.1183 9.89946 36.25 9.58152 36.25 9.25C36.25 8.91848 36.1183 8.60054 35.8839 8.36612C35.6495 8.1317 35.3315 8 35 8H33.025C31.6821 6.53727 30.0639 5.35377 28.263 4.51725C26.4621 3.68073 24.514 3.20762 22.53 3.125L22.5 3C22.5 2.33696 22.2366 1.70107 21.7678 1.23223C21.2989 0.763392 20.663 0.5 20 0.5C19.337 0.5 18.7011 0.763392 18.2322 1.23223C17.7634 1.70107 17.5 2.33696 17.5 3V3.125C13.4596 3.29301 9.6468 5.04097 6.8825 7.9925L5 8C4.66848 8 4.35054 8.1317 4.11612 8.36612C3.8817 8.60054 3.75 8.91848 3.75 9.25C3.75 9.58152 3.8817 9.89946 4.11612 10.1339C4.35054 10.3683 4.66848 10.5 5 10.5H6.725L0.475 23H0C0 25.75 3.35 28 7.5 28C11.65 28 15 25.75 15 23H14.525L8.15 10.275C8.30801 10.1823 8.44372 10.056 8.5475 9.905C9.6531 8.6058 11.0209 7.55507 12.5612 6.82175C14.1015 6.08844 15.7795 5.68912 17.485 5.65L17.5 33H15V35.5H10V38H30V35.5H25V33H22.5V5.65C24.1862 5.6819 25.8458 6.07641 27.366 6.80674C28.8861 7.53706 30.2313 8.58608 31.31 9.8825C31.4255 10.0785 31.5923 10.2393 31.7925 10.3475L25.475 23H25C25 25.75 28.35 28 32.5 28C36.65 28 40 25.75 40 23H39.525ZM12.5 23H2.5L7.5 13.15L12.5 23ZM27.5 23L32.5 13.15L37.5 23H27.5Z" fill="#2F2F2F"/>
</svg>
