<svg width="418" height="160" viewBox="0 0 418 160" fill="none" xmlns="http://www.w3.org/2000/svg">
<path d="M8.288 128C7.22133 128 6.688 127.467 6.688 126.4V59.072C6.688 58.0907 7.02933 57.2373 7.712 56.512L20.512 43.712C21.2373 43.0293 22.0907 42.688 23.072 42.688H37.152C38.176 42.688 39.0293 43.0293 39.712 43.712L50.528 54.528H53.472L64.288 43.712C64.9707 43.0293 65.824 42.688 66.848 42.688H80.928C81.9093 42.688 82.7627 43.0293 83.488 43.712L96.288 56.512C96.9707 57.2373 97.312 58.0907 97.312 59.072V126.4C97.312 127.467 96.7787 128 95.712 128H72.288C71.2213 128 70.688 127.467 70.688 126.4V73.6H65.312V126.4C65.312 127.467 64.7787 128 63.712 128H40.288C39.2213 128 38.688 127.467 38.688 126.4V73.6H33.312V126.4C33.312 127.467 32.7787 128 31.712 128H8.288ZM119.072 128C118.091 128 117.237 127.637 116.512 126.912L103.712 114.112C103.029 113.429 102.688 112.576 102.688 111.552V74.048C102.688 73.024 103.029 72.1707 103.712 71.488L116.512 58.688C117.237 57.9627 118.091 57.6 119.072 57.6H153.312C154.379 57.6 154.912 58.1333 154.912 59.2V126.4C154.912 127.467 154.379 128 153.312 128H137.248C136.651 128 136.16 127.915 135.776 127.744C135.392 127.573 135.029 127.296 134.688 126.912L131.488 123.712L128.288 126.912C127.563 127.637 126.709 128 125.728 128H119.072ZM128.672 106.688H128.928C129.781 106.688 130.421 106.453 130.848 105.984C131.275 105.515 131.488 104.853 131.488 104V78.912H128.8C127.947 78.912 127.285 79.1467 126.816 79.616C126.347 80.0853 126.112 80.7467 126.112 81.6V104C126.112 104.853 126.325 105.515 126.752 105.984C127.221 106.453 127.861 106.688 128.672 106.688ZM177.465 128C176.484 128 175.63 127.637 174.905 126.912L164.217 116.288C163.534 115.563 163.193 114.709 163.193 113.728V78.912H160.505C159.438 78.912 158.905 78.3787 158.905 77.312V59.2C158.905 58.1333 159.438 57.6 160.505 57.6H163.193V49.6C163.193 48.5333 163.726 48 164.793 48H185.017C186.084 48 186.617 48.5333 186.617 49.6V57.6H192.825C193.892 57.6 194.425 58.1333 194.425 59.2V77.312C194.425 78.3787 193.892 78.912 192.825 78.912H186.617V104.512C186.617 105.365 186.873 106.048 187.385 106.56L193.657 112.832C194.084 113.259 194.297 113.899 194.297 114.752V126.4C194.297 127.467 193.764 128 192.697 128H177.465ZM216.998 128C215.846 128 214.993 127.723 214.438 127.168L207.142 119.872L199.462 112.192C198.993 111.723 198.694 111.36 198.566 111.104C198.481 110.805 198.438 110.315 198.438 109.632V75.968C198.438 75.2427 198.481 74.752 198.566 74.496C198.694 74.24 198.993 73.8773 199.462 73.408L207.078 65.792L214.438 58.432C214.779 58.0907 215.142 57.8773 215.526 57.792C215.91 57.664 216.401 57.6 216.998 57.6H231.91C232.977 57.6 233.51 58.1333 233.51 59.2V76.48C233.51 76.864 233.467 77.2053 233.382 77.504C233.339 77.8027 233.126 78.144 232.742 78.528L227.558 83.712L222.502 88.768V96.832L227.11 101.44L232.742 107.072C233.126 107.456 233.339 107.797 233.382 108.096C233.467 108.395 233.51 108.736 233.51 109.12V126.4C233.51 127.467 232.977 128 231.91 128H216.998ZM240.538 128C239.471 128 238.938 127.467 238.938 126.4V44.288C238.938 43.2213 239.471 42.688 240.538 42.688H260.762C261.829 42.688 262.362 43.2213 262.362 44.288V57.6H274.778C275.759 57.6 276.613 57.9627 277.338 58.688L290.138 71.488C290.821 72.1707 291.162 73.024 291.162 74.048V126.4C291.162 127.467 290.629 128 289.562 128H269.338C268.271 128 267.738 127.467 267.738 126.4V83.712C267.738 81.9627 266.842 81.088 265.05 81.088H262.362V126.4C262.362 127.467 261.829 128 260.762 128H240.538ZM312.947 128C311.966 128 311.112 127.637 310.387 126.912L297.587 114.112C296.904 113.429 296.563 112.576 296.563 111.552V44.288C296.563 43.2213 297.096 42.688 298.163 42.688H321.587C322.654 42.688 323.187 43.2213 323.187 44.288V99.712C323.187 101.504 324.083 102.4 325.875 102.4H328.563V44.288C328.563 43.2213 329.096 42.688 330.163 42.688H353.587C354.654 42.688 355.187 43.2213 355.187 44.288V126.4C355.187 127.467 354.654 128 353.587 128H312.947ZM362.163 147.2C361.096 147.2 360.563 146.667 360.563 145.6V59.2C360.563 58.1333 361.096 57.6 362.163 57.6H378.675C379.443 57.6 380.147 57.9627 380.787 58.688L383.987 61.888L387.187 58.688C387.912 57.9627 388.766 57.6 389.747 57.6H396.403C397.384 57.6 398.238 57.9627 398.963 58.688L411.763 71.488C412.446 72.1707 412.787 73.024 412.787 74.048V111.552C412.787 112.576 412.446 113.429 411.763 114.112L398.963 126.912C398.238 127.637 397.384 128 396.403 128H389.747C388.766 128 387.912 127.637 387.187 126.912L383.987 123.712V145.6C383.987 146.667 383.454 147.2 382.387 147.2H362.163ZM383.987 106.688H386.675C387.528 106.688 388.19 106.453 388.659 105.984C389.128 105.515 389.363 104.853 389.363 104V81.6C389.363 80.7467 389.15 80.0853 388.723 79.616C388.296 79.1467 387.656 78.912 386.803 78.912H386.547C385.736 78.912 385.096 79.1467 384.627 79.616C384.2 80.0853 383.987 80.7467 383.987 81.6V106.688Z" fill="black"/>
<path d="M344.672 151.891L350.068 113.172C351.066 125.784 350.674 140.338 355.345 147.821C357.009 137.868 357.677 128.112 356.913 118.64C359.173 127.041 362.189 135.243 362.772 144.086C363.869 137.531 364.652 131.017 367.492 124.233C367.379 131.873 364.945 138.87 369.374 142.687C371.516 136.709 373.677 130.745 374.043 123.365C377.201 130.614 376.766 139.281 377.747 147.391C378.996 139.415 380.015 117.175 384.709 110.105C384.248 124.751 384.136 136.348 388.776 142.241C393.362 137.709 393.759 128.83 393.865 120.405C397.102 127.641 399.276 135.885 399.484 145.991C400.764 137.559 402.255 129.127 405.925 120.695C405.072 131.042 405.734 139.088 408.823 143.45C410.866 136.94 412.609 130.43 413.146 123.919C415.88 133.62 415.075 142.621 415.625 151.891H344.672Z" fill="#14AE5C"/>
<path d="M276.602 151.891L281.855 113.172C282.828 125.784 282.446 140.338 286.994 147.821C288.614 137.868 289.264 128.112 288.521 118.64C290.721 127.041 293.658 135.243 294.225 144.086C295.294 137.531 296.056 131.017 298.821 124.233C298.711 131.873 296.341 138.87 300.653 142.687C302.739 136.709 304.843 130.745 305.2 123.365C308.274 130.614 307.851 139.281 308.806 147.391C310.022 139.415 311.014 117.175 315.585 110.105C315.136 124.751 315.027 136.348 319.545 142.241C324.011 137.709 324.397 128.83 324.5 120.405C327.652 127.641 329.769 135.885 329.971 145.991C331.218 137.559 332.669 129.127 336.243 120.695C335.412 131.042 336.057 139.088 339.065 143.45C341.053 136.94 342.751 130.43 343.273 123.919C345.936 133.62 345.152 142.621 345.688 151.891H276.602Z" fill="#14AE5C"/>
<path d="M209.602 151.891L214.855 113.172C215.828 125.784 215.446 140.338 219.994 147.821C221.614 137.868 222.264 128.112 221.521 118.64C223.721 127.041 226.658 135.243 227.225 144.086C228.294 137.531 229.056 131.017 231.821 124.233C231.711 131.873 229.341 138.87 233.653 142.687C235.739 136.709 237.843 130.745 238.2 123.365C241.274 130.614 240.851 139.281 241.806 147.391C243.022 139.415 244.014 117.175 248.585 110.105C248.136 124.751 248.027 136.348 252.545 142.241C257.011 137.709 257.397 128.83 257.5 120.405C260.652 127.641 262.769 135.885 262.971 145.991C264.218 137.559 265.669 129.127 269.243 120.695C268.412 131.042 269.057 139.088 272.065 143.45C274.053 136.94 275.751 130.43 276.273 123.919C278.936 133.62 278.152 142.621 278.688 151.891H209.602Z" fill="#14AE5C"/>
<path d="M141.602 151.906L146.855 95.1188C147.828 113.616 147.446 134.963 151.994 145.937C153.614 131.34 154.264 117.031 153.521 103.138C155.721 115.46 158.658 127.49 159.225 140.459C160.294 130.846 161.056 121.292 163.821 111.342C163.711 122.547 161.341 132.809 165.653 138.407C167.739 129.64 169.843 120.893 170.2 110.068C173.274 120.701 172.851 133.413 173.806 145.306C175.022 133.608 176.014 100.99 180.585 90.6208C180.136 112.102 180.027 129.11 184.545 137.754C189.011 131.107 189.397 118.085 189.5 105.727C192.652 116.34 194.769 128.432 194.971 143.254C196.218 130.887 197.669 118.52 201.243 106.153C200.412 121.328 201.057 133.129 204.065 139.526C206.053 129.978 207.751 120.431 208.273 110.881C210.936 125.109 210.152 138.311 210.688 151.906H141.602Z" fill="#14AE5C"/>
<path d="M74.6016 151.891L79.8553 113.172C80.8277 125.784 80.4458 140.338 84.9942 147.821C86.6137 137.868 87.2644 128.112 86.5208 118.64C88.7213 127.041 91.6578 135.243 92.2251 144.086C93.2939 137.531 94.0559 131.017 96.8209 124.233C96.7111 131.873 94.3408 138.87 98.6532 142.687C100.739 136.709 102.843 130.745 103.2 123.365C106.274 130.614 105.851 139.281 106.806 147.391C108.022 139.415 109.014 117.175 113.585 110.105C113.136 124.751 113.027 136.348 117.545 142.241C122.011 137.709 122.397 128.83 122.5 120.405C125.652 127.641 127.769 135.885 127.971 145.991C129.218 137.559 130.669 129.127 134.243 120.695C133.412 131.042 134.057 139.088 137.065 143.45C139.053 136.94 140.751 130.43 141.273 123.919C143.936 133.62 143.152 142.621 143.688 151.891H74.6016Z" fill="#14AE5C"/>
<path d="M2.74219 151.906L8.27988 95.1188C9.30485 113.616 8.90236 134.963 13.6966 145.937C15.4036 131.34 16.0895 117.031 15.3057 103.138C17.6251 115.46 20.7204 127.49 21.3184 140.459C22.445 130.846 23.2481 121.292 26.1626 111.342C26.0468 122.547 23.5484 132.809 28.0939 138.407C30.2926 129.64 32.5106 120.893 32.8866 110.068C36.127 120.701 35.6809 133.413 36.6873 145.306C37.9696 133.608 39.0151 100.99 43.8333 90.6208C43.3595 112.102 43.2449 129.11 48.0072 137.754C52.7141 131.107 53.1207 118.085 53.2295 105.727C56.5524 116.34 58.7835 128.432 58.9968 143.254C60.3109 130.887 61.8406 118.52 65.607 106.153C64.7313 121.328 65.4114 133.129 68.5815 139.526C70.6778 129.978 72.4669 120.431 73.0178 110.881C75.8239 125.109 74.9982 138.311 75.5628 151.906H2.74219Z" fill="#14AE5C"/>
</svg>
