<svg width="50" height="50" viewBox="0 0 50 50" fill="none" xmlns="http://www.w3.org/2000/svg">
<path d="M25 0C38.8184 0 50 11.1816 50 25C50 38.8184 38.8184 50 25 50C11.1816 50 0 38.8184 0 25C0 11.1816 11.1816 0 25 0ZM25 46.9238C37.0605 46.9238 46.875 37.0605 46.875 25C46.875 12.9395 37.0605 3.125 25 3.125C12.9395 3.125 3.125 12.9395 3.125 25C3.125 37.0605 12.9395 46.9238 25 46.9238ZM23.291 26.5625H14.0625C13.1836 26.5625 12.5 25.8789 12.5 25C12.5 24.1211 13.1836 23.4375 14.0625 23.4375H35.9375C36.8164 23.4375 37.5 24.1211 37.5 25C37.5 25.8789 36.8164 26.5625 35.9375 26.5625H23.291Z" fill="#8C8C8C"/>
</svg>
