<svg width="50" height="50" viewBox="0 0 50 50" fill="none" xmlns="http://www.w3.org/2000/svg">
<path d="M25 50C11.1765 50 0 38.8235 0 25C0 11.1765 11.1765 0 25 0C38.8235 0 50 11.1765 50 25C50 38.8235 38.8235 50 25 50ZM25 2.94118C12.7941 2.94118 2.94118 12.7941 2.94118 25C2.94118 37.2059 12.7941 47.0588 25 47.0588C37.2059 47.0588 47.0588 37.2059 47.0588 25C47.0588 12.7941 37.2059 2.94118 25 2.94118Z" fill="#8C8C8C"/>
<path d="M12 24H39V27H12V24Z" fill="#8C8C8C"/>
<path d="M24 12H27V39H24V12Z" fill="#8C8C8C"/>
</svg>
