<svg width="40" height="40" viewBox="0 0 40 40" fill="none" xmlns="http://www.w3.org/2000/svg">
<path d="M19.9998 38.7906C30.3793 38.7906 38.7936 30.3778 38.7936 20C38.7936 9.62222 30.3793 1.20938 19.9998 1.20938C9.6203 1.20938 1.20605 9.62222 1.20605 20C1.20605 30.3778 9.6203 38.7906 19.9998 38.7906Z" fill="white"/>
<path d="M27.7128 19.7687C26.9847 19.6656 26.3378 20.2469 25.769 20.6125C24.5409 21.3969 23.4565 22.3063 22.4097 23.3313C21.7628 23.9656 20.8878 24.8094 20.6565 25.7219C20.5503 26.1437 20.6815 26.6281 20.7659 27.0406C20.9128 27.7594 21.1378 28.4594 21.3628 29.1563C21.6169 29.9396 21.911 30.7093 22.244 31.4625C22.4097 31.8406 22.5909 32.2156 22.769 32.5906C22.9347 32.9406 23.044 33.1469 23.4503 33.2C23.9065 33.2594 24.3628 33.1906 24.8159 33.1719C25.4847 33.1469 26.1534 33.0813 26.8128 32.9688C27.6847 32.8219 28.5628 32.6625 29.3972 32.3656C30.169 32.0875 31.0534 31.6562 31.5003 30.9469C32.4597 29.4219 33.0409 27.6906 33.3597 25.925C33.4534 25.4156 33.544 24.8969 33.5409 24.375C33.544 23.9156 33.5847 23.4438 33.2534 23.0906C32.6597 22.4531 31.9565 21.925 31.2284 21.4469C30.1503 20.7469 29.0222 19.9562 27.7128 19.7687ZM6.50967 12.4C5.83154 12.7594 5.30029 13.6156 4.90341 14.2437C4.10966 15.4937 3.46904 16.9375 3.16904 18.3906C2.94092 19.5031 3.43779 20.5875 3.80966 21.6156C4.17216 22.6062 4.80341 23.3906 5.49404 24.1687C5.66904 24.3687 5.89091 24.5187 6.06591 24.7156C6.26591 24.9375 6.51904 25.1469 6.78154 25.2938C6.96904 25.4 7.13779 25.2563 7.32841 25.2125C7.83154 25.0906 8.20654 24.8344 8.66279 24.5938C9.07216 24.375 9.49404 24.1906 9.90654 23.9719C10.7909 23.4969 11.844 23.1062 12.6159 22.4531C12.7159 22.3687 12.8472 22.2625 12.8753 22.1281C12.9472 21.7937 12.8472 21.3594 12.8315 21.0187C12.8128 20.5406 12.8065 20.0656 12.8034 19.5875C12.8003 18.5062 12.8409 17.425 12.8409 16.3437C12.8503 15.7406 12.9253 15.1406 12.8972 14.5375C12.8472 13.6406 11.8784 13.3219 11.1503 13.1406C10.1284 12.8875 9.10029 12.5406 8.05654 12.4125C7.62529 12.3656 6.91279 12.1875 6.50967 12.4ZM33.0378 9.70312C33.1347 9.025 32.6815 8.20937 32.3534 7.60312C31.7034 6.39375 30.7722 5.20625 29.6097 4.2625C28.7222 3.54062 27.4159 3.24687 26.2003 3.125C24.0222 2.90312 22.3597 3.0375 21.9003 3.10937C21.4378 3.18125 21.0034 3.32187 20.7565 3.62812C20.269 4.22187 20.1847 5.07187 20.0815 5.80312C19.9315 6.84687 19.8003 7.92187 19.9378 8.97187C19.9597 9.15937 19.9878 9.40625 20.0784 9.57187C20.2503 9.87812 20.6128 10.0312 20.9722 10.1906C22.8347 11.0125 26.3878 13.0469 26.9659 13.3219C27.8284 13.7375 28.7472 13.1844 29.3847 12.7375C30.269 12.1156 31.2534 11.5312 32.0347 10.8281C32.3565 10.5406 32.9784 10.1031 33.0378 9.70312ZM6.28467 32.95C6.35967 33.0656 6.43154 33.1531 6.54717 33.2406C6.73154 33.3813 6.90654 33.525 7.08154 33.6781C8.60966 35.0188 10.4003 36.0281 12.1753 36.9969C12.7097 37.2906 13.219 37.5906 13.7628 37.8625C14.3503 38.1531 14.9565 38.35 15.5878 38.525C16.0159 38.6438 16.4503 38.7594 16.894 38.8031C17.3065 38.8437 17.7284 38.9406 18.144 38.9469C18.3815 38.95 18.6003 38.9406 18.8315 38.9094C18.719 38.7281 18.619 38.4969 18.5222 38.3031C18.369 38 18.2128 37.6938 18.0565 37.3938C17.8753 37.0469 17.7347 36.6844 17.5503 36.3406C17.4065 36.0781 17.219 35.8062 16.9597 35.6531C16.6128 35.4469 16.2815 35.2437 15.9034 35.0906C14.5222 34.5281 13.2847 33.7344 12.0003 32.9906C11.3503 32.6125 10.7128 32.2094 10.1003 31.7688C9.77216 31.5344 9.45341 31.2906 9.10654 31.0813C9.03466 31.0344 8.96279 30.9781 8.87842 30.9656C8.80341 30.9531 8.68779 30.9562 8.61279 30.9656C8.54404 30.975 8.46279 30.9875 8.39717 31C7.94717 31.0938 7.45966 31.2125 6.99404 31.3156C6.55029 31.4156 6.05342 31.45 5.62842 31.6125C5.46279 31.675 5.48154 31.7688 5.54716 31.9125C5.64716 32.1375 5.79404 32.3438 5.94717 32.5312C6.05029 32.6656 6.17842 32.7906 6.28467 32.95Z" fill="#2F2F2F"/>
<path d="M11.691 15.1C11.5852 15.1001 11.4815 15.0702 11.392 15.0139C11.3024 14.9575 11.2306 14.877 11.1848 14.7816C11.1391 14.6862 11.1213 14.5797 11.1334 14.4746C11.1456 14.3695 11.1872 14.27 11.2535 14.1875C11.4067 14 15.0129 9.58125 21.4629 8.58125C21.5356 8.57017 21.6097 8.5735 21.681 8.59106C21.7524 8.60863 21.8196 8.64007 21.8787 8.68359C21.9379 8.72712 21.988 8.78188 22.026 8.84475C22.0641 8.90762 22.0893 8.97736 22.1004 9.05C22.1115 9.12264 22.1082 9.19675 22.0906 9.26809C22.073 9.33944 22.0416 9.40663 21.9981 9.46583C21.9545 9.52503 21.8998 9.57507 21.8369 9.61311C21.7741 9.65114 21.7043 9.67642 21.6317 9.6875C15.6285 10.6219 12.1598 14.85 12.1254 14.8906C12.0129 15.0281 11.8535 15.1 11.691 15.1ZM10.3598 34.7187C10.1973 34.7187 10.0348 34.65 9.92542 34.5125C9.7723 34.325 6.21917 29.8625 6.60355 23.35C6.6223 23.0406 6.8848 22.8031 7.19417 22.8219C7.50355 22.8406 7.73792 23.1062 7.71917 23.4156C7.36292 29.5 10.7598 33.7656 10.7942 33.8062C10.991 34.0469 10.9504 34.4 10.7129 34.5937C10.6098 34.675 10.4848 34.7187 10.3598 34.7187ZM14.5848 36.9187C14.2973 36.9187 14.0535 36.7 14.0285 36.4062C14.0035 36.0969 14.2317 35.825 14.541 35.8C14.5942 35.7969 20.0379 35.2844 24.1692 30.8281C24.2708 30.7193 24.4114 30.6553 24.5602 30.65C24.709 30.6448 24.8538 30.6987 24.9629 30.8C25.191 31.0094 25.2035 31.3656 24.991 31.5937C20.5535 36.375 14.8723 36.8969 14.6348 36.9187C14.616 36.9156 14.6004 36.9187 14.5848 36.9187ZM6.80042 14.4281C6.53792 14.4281 6.30355 14.2437 6.25355 13.975C6.2223 13.8187 5.51605 10.1156 7.03792 5.72812C7.14105 5.43437 7.45667 5.27812 7.75042 5.38125C8.04105 5.48437 8.1973 5.8 8.0973 6.09375C6.6723 10.2 7.34417 13.7219 7.35355 13.7594C7.41292 14.0625 7.21605 14.3594 6.9098 14.4187C6.87542 14.425 6.83792 14.4281 6.80042 14.4281ZM23.0848 5.2375C22.9692 5.2375 22.8504 5.2 22.7535 5.125C22.7254 5.10625 19.8098 2.99063 15.5067 2.51875C15.2004 2.4875 14.9754 2.20938 15.0098 1.90313C15.041 1.59375 15.3192 1.375 15.6254 1.40625C20.2442 1.90938 23.2879 4.12812 23.416 4.22187C23.6629 4.40625 23.716 4.75625 23.5317 5.00625C23.4254 5.15937 23.2567 5.2375 23.0848 5.2375ZM37.2285 14.3531C37.066 14.3531 36.9035 14.2812 36.791 14.1437C34.0598 10.7656 30.716 9.46875 30.6848 9.45625C30.5459 9.40364 30.4334 9.29821 30.3719 9.16296C30.3104 9.02772 30.305 8.87364 30.3567 8.73438C30.466 8.44375 30.791 8.3 31.0785 8.40625C31.2285 8.4625 34.741 9.825 37.6598 13.4375C37.8567 13.6781 37.816 14.0312 37.5754 14.225C37.4754 14.3125 37.3504 14.3531 37.2285 14.3531ZM27.3379 21.9281C27.316 21.9281 27.2879 21.925 27.266 21.9219C27.1931 21.9125 27.1227 21.8888 27.059 21.852C26.9952 21.8153 26.9394 21.7664 26.8947 21.708C26.8499 21.6496 26.8172 21.5829 26.7983 21.5119C26.7795 21.4408 26.7749 21.3666 26.7848 21.2937C27.5004 15.9375 26.7973 11.9812 26.7879 11.9406C26.7317 11.6375 26.9317 11.3438 27.2379 11.2906C27.5442 11.2312 27.8348 11.4375 27.891 11.7406C27.9192 11.9094 28.6348 15.9125 27.8942 21.4438C27.8567 21.725 27.616 21.9281 27.3379 21.9281ZM22.4754 26.5031C22.4567 26.5031 22.4442 26.5031 22.4254 26.5C15.4629 25.8844 10.8817 21.9562 10.6879 21.7906C10.5761 21.6929 10.5074 21.555 10.4969 21.4069C10.4863 21.2588 10.5348 21.1125 10.6317 21C10.8348 20.7656 11.1879 20.7406 11.4223 20.9437C11.4692 20.9812 15.9379 24.8031 22.5254 25.3844C22.6686 25.3979 22.8012 25.466 22.8956 25.5746C22.99 25.6831 23.0391 25.8238 23.0327 25.9675C23.0263 26.1113 22.9648 26.247 22.8611 26.3467C22.7574 26.4464 22.6193 26.5024 22.4754 26.5031ZM2.47855 20.0812C2.00667 20.0812 1.49105 20.0219 1.0098 19.8375C0.870861 19.7849 0.758379 19.6795 0.696903 19.5442C0.635428 19.409 0.629952 19.2549 0.681671 19.1156C0.794171 18.8281 1.11292 18.6812 1.40667 18.7875C2.43792 19.1812 3.81605 18.7781 3.83167 18.775C4.12542 18.6875 4.43792 18.8531 4.52542 19.1531C4.61605 19.4469 4.4473 19.7594 4.15355 19.85C4.10667 19.8625 3.36917 20.0812 2.47855 20.0812ZM33.0223 24.8625C32.8098 24.8625 32.6098 24.7406 32.516 24.5375C32.3848 24.2594 32.5098 23.925 32.7879 23.7937C32.8192 23.7781 36.0754 22.2375 38.5535 18.6875C38.7285 18.4312 39.0785 18.3687 39.3317 18.5469C39.5848 18.725 39.6473 19.0719 39.4723 19.325C36.816 23.1344 33.4035 24.7406 33.2598 24.8094C33.1785 24.8437 33.1004 24.8625 33.0223 24.8625ZM33.0223 34.3219C32.8973 34.3219 32.7723 34.2812 32.666 34.2C31.3848 33.1906 30.1442 31.3562 30.091 31.2812C29.916 31.0187 29.9848 30.6625 30.2473 30.4844C30.5067 30.3094 30.866 30.3781 31.041 30.6437C31.0535 30.6594 32.2348 32.4031 33.3754 33.3C33.6223 33.4969 33.666 33.8562 33.4723 34.1062C33.3567 34.2437 33.191 34.3219 33.0223 34.3219Z" fill="#2F2F2F"/>
<path d="M20.0004 39.9125C9.01914 39.9125 0.0878906 30.9812 0.0878906 20C0.0878906 9.02187 9.01914 0.0874996 20.0004 0.0874996C30.9816 0.0874996 39.9129 9.02188 39.9129 19.9969C39.9129 30.9813 30.9785 39.9125 20.0004 39.9125ZM20.0004 2.32812C10.2566 2.32812 2.32852 10.2563 2.32852 20C2.32852 29.7437 10.2535 37.6719 19.9973 37.6719C29.741 37.6719 37.6691 29.7437 37.6691 20C37.6723 10.2563 29.741 2.32812 20.0004 2.32812Z" fill="#2F2F2F"/>
</svg>
