<svg width="34" height="31" viewBox="0 0 34 31" fill="none" xmlns="http://www.w3.org/2000/svg">
<path d="M33.333 23.6667L27.333 17.6667C26.9997 17.5 26.6663 17.3333 26.333 17.3333H21.6663C20.9997 17.3333 20.333 18 20.333 18.6667V23.3333C20.333 23.6667 20.4997 24 20.6663 24.3333L26.6663 30.3333C26.833 30.5 27.1663 30.6667 27.6663 30.6667C27.9997 30.6667 28.333 30.5 28.6663 30.3333L33.333 25.6667C33.4997 25.5 33.6663 25.1667 33.6663 24.6667C33.6663 24.3333 33.4997 24 33.333 23.6667ZM22.6663 20.6667C22.1663 20.6667 21.6663 20.1667 21.6663 19.6667C21.6663 19.1667 22.1663 18.6667 22.6663 18.6667C23.1663 18.6667 23.6663 19.1667 23.6663 19.6667C23.6663 20.1667 23.1663 20.6667 22.6663 20.6667ZM13.6663 0.666656C9.99967 0.666656 6.99967 3.66666 6.99967 7.33332C6.99967 11 9.99967 14 13.6663 14C17.333 14 20.333 11 20.333 7.33332C20.333 3.66666 17.333 0.666656 13.6663 0.666656ZM13.6663 17.3333C6.33301 17.3333 0.333008 20.3333 0.333008 24V27.3333H18.9997L18.333 26.6667C17.4997 25.8333 16.9997 24.6667 16.9997 23.3333V18.6667C16.9997 18.3333 16.9997 18 17.1663 17.5C15.9997 17.3333 14.833 17.3333 13.6663 17.3333Z" fill="#403F3F"/>
</svg>
